<svg id="artwork" xmlns="http://www.w3.org/2000/svg" xmlns:xlink="http://www.w3.org/1999/xlink" viewBox="0 0 134.97 39.9"><defs><style>.cls-1,.cls-11,.cls-3,.cls-4{fill:#fff;}.cls-1{fill-opacity:0;}.cls-2{fill:#a6a6a6;}.cls-3{stroke:#fff;stroke-miterlimit:10;stroke-width:0.2px;}.cls-5{fill:url(#linear-gradient);}.cls-6{fill:url(#linear-gradient-2);}.cls-7{fill:url(#linear-gradient-3);}.cls-8{fill:url(#linear-gradient-4);}.cls-9{opacity:0.2;}.cls-10,.cls-11,.cls-9{isolation:isolate;}.cls-10{opacity:0.12;}.cls-11{opacity:0.25;}</style><linearGradient id="linear-gradient" x1="21.77" y1="173.19" x2="4.99" y2="156.41" gradientTransform="matrix(1, 0, 0, -1, 0, 181.81)" gradientUnits="userSpaceOnUse"><stop offset="0" stop-color="#00a0ff"/><stop offset="0.01" stop-color="#00a1ff"/><stop offset="0.26" stop-color="#00beff"/><stop offset="0.51" stop-color="#00d2ff"/><stop offset="0.76" stop-color="#00dfff"/><stop offset="1" stop-color="#00e3ff"/></linearGradient><linearGradient id="linear-gradient-2" x1="33.81" y1="161.9" x2="9.61" y2="161.9" gradientTransform="matrix(1, 0, 0, -1, 0, 181.81)" gradientUnits="userSpaceOnUse"><stop offset="0" stop-color="#ffe000"/><stop offset="0.41" stop-color="#ffbd00"/><stop offset="0.78" stop-color="orange"/><stop offset="1" stop-color="#ff9c00"/></linearGradient><linearGradient id="linear-gradient-3" x1="24.8" y1="159.61" x2="2.04" y2="136.85" gradientTransform="matrix(1, 0, 0, -1, 0, 181.81)" gradientUnits="userSpaceOnUse"><stop offset="0" stop-color="#ff3a44"/><stop offset="1" stop-color="#c31162"/></linearGradient><linearGradient id="linear-gradient-4" x1="7.27" y1="181.73" x2="17.43" y2="171.56" gradientTransform="matrix(1, 0, 0, -1, 0, 181.81)" gradientUnits="userSpaceOnUse"><stop offset="0" stop-color="#32a071"/><stop offset="0.07" stop-color="#2da771"/><stop offset="0.48" stop-color="#15cf74"/><stop offset="0.8" stop-color="#06e775"/><stop offset="1" stop-color="#00f076"/></linearGradient></defs><title>Artboard 7</title><rect class="cls-1" x="-10.03" y="-10.1" width="155" height="60"/><rect x="-0.03" y="-0.1" width="135" height="40" rx="5"/><path class="cls-2" d="M130,.7a4.21,4.21,0,0,1,4.2,4.2v30a4.2,4.2,0,0,1-4.2,4.2H5a4.21,4.21,0,0,1-4.2-4.2V4.9A4.21,4.21,0,0,1,5,.7H130m0-.8H5a5,5,0,0,0-5,5v30a5,5,0,0,0,5,5H130a5,5,0,0,0,5-5V4.9a5,5,0,0,0-5-5Z"/><path class="cls-3" d="M47.39,10.15a2.74,2.74,0,0,1-.74,2,2.93,2.93,0,0,1-2.21.89A3.09,3.09,0,0,1,41.32,9.9,3.13,3.13,0,0,1,45.67,7a2.46,2.46,0,0,1,.94.67l-.53.53a2,2,0,0,0-1.64-.71A2.31,2.31,0,0,0,42.11,9.9a2.29,2.29,0,0,0,.69,1.73,2.39,2.39,0,0,0,3.32,0,1.87,1.87,0,0,0,.5-1.22H44.44V9.69h2.91A2.45,2.45,0,0,1,47.39,10.15Z"/><path class="cls-3" d="M52,7.64H49.27v1.9h2.46v.72H49.27v1.91H52v.73H48.5v-6H52Z"/><path class="cls-3" d="M55.25,12.9h-.77V7.64H52.8V6.9h4.13v.74H55.25Z"/><path class="cls-3" d="M59.91,12.9v-6h.77v6Z"/><path class="cls-3" d="M64.1,12.9h-.77V7.64H61.65V6.9h4.13v.74H64.1Z"/><path class="cls-3" d="M73.58,12.13a3.11,3.11,0,0,1-4.4,0A3.08,3.08,0,0,1,68.3,9.9a3.05,3.05,0,0,1,.88-2.22,3.11,3.11,0,0,1,4.4,0,3.08,3.08,0,0,1,.89,2.22A3.09,3.09,0,0,1,73.58,12.13Zm-3.83-.5a2.32,2.32,0,0,0,3.26,0,2.34,2.34,0,0,0,.67-1.73A2.32,2.32,0,0,0,73,8.18a2.32,2.32,0,0,0-3.26,0,2.35,2.35,0,0,0-.66,1.72A2.38,2.38,0,0,0,69.75,11.63Z"/><path class="cls-3" d="M75.55,12.9v-6h.94l2.91,4.67h0l0-1.16V6.9h.77v6h-.8L76.32,8h0l0,1.16V12.9Z"/><path class="cls-4" d="M68.11,21.65a4.26,4.26,0,1,0,4.27,4.26A4.2,4.2,0,0,0,68.11,21.65Zm0,6.84a2.59,2.59,0,1,1,2.4-2.58A2.46,2.46,0,0,1,68.11,28.49ZM58.8,21.65a4.26,4.26,0,1,0,4.26,4.26A4.19,4.19,0,0,0,58.8,21.65Zm0,6.84a2.59,2.59,0,1,1,2.4-2.58A2.47,2.47,0,0,1,58.8,28.49ZM47.72,23v1.8H52a3.77,3.77,0,0,1-1,2.28,4.45,4.45,0,0,1-3.33,1.32,4.81,4.81,0,0,1,0-9.61A4.61,4.61,0,0,1,51,20l1.27-1.27A6.29,6.29,0,0,0,47.72,17a6.61,6.61,0,1,0,0,13.21,6,6,0,0,0,4.6-1.85,5.94,5.94,0,0,0,1.57-4.22,6.24,6.24,0,0,0-.1-1.13ZM93,24.36a4,4,0,0,0-3.64-2.71,4,4,0,0,0-4,4.26,4.17,4.17,0,0,0,4.22,4.25,4.25,4.25,0,0,0,3.55-1.88l-1.45-1a2.45,2.45,0,0,1-2.1,1.18,2.17,2.17,0,0,1-2.06-1.29l5.69-2.36Zm-5.8,1.42a2.34,2.34,0,0,1,2.23-2.48,1.65,1.65,0,0,1,1.58.9ZM82.6,29.9h1.87V17.4H82.6Zm-3.06-7.29h-.06a3,3,0,0,0-2.24-1,4.26,4.26,0,0,0,0,8.51,2.9,2.9,0,0,0,2.24-1h.06v.62a2.18,2.18,0,0,1-2.27,2.49,2.34,2.34,0,0,1-2.14-1.51l-1.63.68A4.07,4.07,0,0,0,77.27,34c2.19,0,4-1.29,4-4.43V21.91H79.54ZM77.4,28.49a2.59,2.59,0,0,1,0-5.16,2.4,2.4,0,0,1,2.27,2.59A2.38,2.38,0,0,1,77.4,28.49ZM101.78,17.4H97.31V29.9h1.86V25.17h2.61a3.89,3.89,0,1,0,0-7.77Zm0,6H99.17V19.14h2.66a2.15,2.15,0,1,1,0,4.29Zm11.53-1.8A3.51,3.51,0,0,0,110,23.55l1.66.69a1.76,1.76,0,0,1,1.7-.92,1.79,1.79,0,0,1,2,1.61v.13a4,4,0,0,0-1.94-.49c-1.79,0-3.61,1-3.61,2.82a2.9,2.9,0,0,0,3.11,2.75,2.64,2.64,0,0,0,2.38-1.22h.06v1h1.8V25.09C117.15,22.87,115.5,21.63,113.36,21.63Zm-.23,6.85c-.61,0-1.46-.3-1.46-1.06,0-1,1.06-1.33,2-1.33a3.33,3.33,0,0,1,1.7.41A2.26,2.26,0,0,1,113.13,28.48Zm10.59-6.57-2.14,5.42h-.07l-2.22-5.42h-2l3.33,7.57-1.9,4.21h2l5.13-11.78Zm-16.81,8h1.86V17.4h-1.86Z"/><path class="cls-5" d="M10.41,7.44A2,2,0,0,0,10,8.85V31a2,2,0,0,0,.46,1.41l.07.07L22.87,20.05v-.29L10.48,7.37Z"/><path class="cls-6" d="M27,24.18l-4.13-4.13v-.29L27,15.63l.09,0L32,18.46c1.39.79,1.39,2.09,0,2.89l-4.9,2.78Z"/><path class="cls-7" d="M27.09,24.13,22.87,19.9,10.41,32.37a1.63,1.63,0,0,0,2.08.06l14.6-8.3"/><path class="cls-8" d="M27.09,15.68l-14.6-8.3a1.62,1.62,0,0,0-2.08.06L22.87,19.9Z"/><path class="cls-9" d="M27,24,12.49,32.28a1.68,1.68,0,0,1-2,0h0l-.07.08h0l.07.07h0a1.68,1.68,0,0,0,2,0l14.6-8.3Z"/><path class="cls-10" d="M10.41,32.22a2,2,0,0,1-.46-1.4V31a2,2,0,0,0,.46,1.41l.07-.08Z"/><path class="cls-10" d="M32,21.2,27,24l.09.09L32,21.35A1.76,1.76,0,0,0,33,19.9h0A1.87,1.87,0,0,1,32,21.2Z"/><path class="cls-11" d="M12.49,7.53,32,18.61A1.87,1.87,0,0,1,33,19.9h0A1.76,1.76,0,0,0,32,18.46L12.49,7.38C11.09,6.59,10,7.25,10,8.85V9C10,7.39,11.09,6.73,12.49,7.53Z"/></svg>