<svg id="artwork" xmlns="http://www.w3.org/2000/svg" viewBox="0 0 119.66 39.9"><defs><style>.cls-1{fill:#b1b3b6;}.cls-2{fill:#fff;}</style></defs><title>Artboard 1</title><path class="cls-1" d="M110.13-.1H7.52a13.5,13.5,0,0,0-2,.17,6.74,6.74,0,0,0-1.9.63A6.54,6.54,0,0,0,2,1.9,6.07,6.07,0,0,0,.82,3.52a6.74,6.74,0,0,0-.63,1.9,12.39,12.39,0,0,0-.17,2c0,.3,0,.61,0,.92V31.46c0,.31,0,.61,0,.92a12.39,12.39,0,0,0,.17,2,6.74,6.74,0,0,0,.63,1.9A6,6,0,0,0,2,37.9a6.07,6.07,0,0,0,1.62,1.18,6.44,6.44,0,0,0,1.9.63,13.51,13.51,0,0,0,2,.18H112.14a13.39,13.39,0,0,0,2-.18,6.6,6.6,0,0,0,1.91-.63,6.24,6.24,0,0,0,1.62-1.18,6.49,6.49,0,0,0,1.18-1.61,7.05,7.05,0,0,0,.62-1.9,13.65,13.65,0,0,0,.18-2c0-.31,0-.61,0-.92V8.35c0-.31,0-.62,0-.92a13.65,13.65,0,0,0-.18-2,7.05,7.05,0,0,0-.62-1.9,6.54,6.54,0,0,0-1.18-1.62A6.73,6.73,0,0,0,116.05.72a6.91,6.91,0,0,0-1.91-.63,13.38,13.38,0,0,0-2-.17h-2Z"/><path d="M8.44,39h-.9a12.85,12.85,0,0,1-1.87-.17A6.22,6.22,0,0,1,4,38.31a5.42,5.42,0,0,1-1.39-1,5,5,0,0,1-1-1.4,5.72,5.72,0,0,1-.55-1.65,12.32,12.32,0,0,1-.16-1.88c0-.21,0-.91,0-.91V8.35s0-.69,0-.9a12.1,12.1,0,0,1,.16-1.87A5.89,5.89,0,0,1,1.6,3.92a5.21,5.21,0,0,1,1-1.4A5.77,5.77,0,0,1,4,1.5,6.11,6.11,0,0,1,5.67,1,12.1,12.1,0,0,1,7.54.79H112.13A11.86,11.86,0,0,1,114,1a6.25,6.25,0,0,1,1.68.55,5.54,5.54,0,0,1,1.39,1,5.31,5.31,0,0,1,1,1.4,5.92,5.92,0,0,1,.54,1.65,13.68,13.68,0,0,1,.17,1.89v.89c0,.37,0,.73,0,1.09V30.37c0,.36,0,.72,0,1.07v.93a13.4,13.4,0,0,1-.17,1.86,6.06,6.06,0,0,1-.54,1.67,5.68,5.68,0,0,1-2.42,2.4,5.66,5.66,0,0,1-1.67.55,12.6,12.6,0,0,1-1.86.17H8.44Z"/><path class="cls-2" d="M24.77,20.2a4.92,4.92,0,0,1,2.36-4.15,5.08,5.08,0,0,0-4-2.16c-1.67-.17-3.3,1-4.16,1s-2.19-1-3.61-1a5.33,5.33,0,0,0-4.47,2.73C9,20,10.4,24.94,12.25,27.64c.93,1.33,2,2.81,3.43,2.76s1.9-.89,3.58-.89,2.14.89,3.59.85S25.28,29,26.17,27.7a11.07,11.07,0,0,0,1.52-3.1,4.77,4.77,0,0,1-2.92-4.4Z"/><path class="cls-2" d="M22,12.11a4.89,4.89,0,0,0,1.11-3.49,5,5,0,0,0-3.21,1.66,4.68,4.68,0,0,0-1.14,3.36A4.11,4.11,0,0,0,22,12.11Z"/><path class="cls-2" d="M38.06,25.49h3.75L40,20.05h-.05l-1.85,5.44ZM42.3,27H37.57L36.43,30.4h-2L38.91,18H41L45.48,30.4h-2L42.3,27Z"/><path class="cls-2" d="M53.25,25.87c0-1.83-1-3-2.39-3s-2.38,1.24-2.38,3,1,3.05,2.38,3.05,2.39-1.2,2.39-3.05Zm1.91,0c0,2.82-1.51,4.62-3.78,4.62a3.07,3.07,0,0,1-2.85-1.58h0v4.48H46.63v-12h1.8v1.5h0a3.22,3.22,0,0,1,2.89-1.6c2.3,0,3.81,1.82,3.81,4.62Z"/><path class="cls-2" d="M63.21,25.87c0-1.83-.94-3-2.39-3s-2.37,1.24-2.37,3,.95,3.05,2.37,3.05,2.39-1.2,2.39-3.05Zm1.91,0c0,2.82-1.5,4.62-3.77,4.62a3.06,3.06,0,0,1-2.85-1.58h0v4.48H56.6v-12h1.79v1.5h0a3.22,3.22,0,0,1,2.88-1.6c2.3,0,3.81,1.82,3.81,4.62Z"/><path class="cls-2" d="M71.71,26.94c.14,1.23,1.33,2,3,2s2.69-.81,2.69-1.92c0-1-.68-1.54-2.29-1.94l-1.61-.38c-2.28-.55-3.33-1.62-3.33-3.35,0-2.14,1.86-3.62,4.51-3.62s4.43,1.48,4.49,3.62H77.26c-.11-1.24-1.14-2-2.63-2s-2.52.76-2.52,1.86c0,.88.65,1.39,2.25,1.79l1.37.34c2.55.6,3.61,1.62,3.61,3.44,0,2.32-1.86,3.78-4.8,3.78-2.75,0-4.61-1.42-4.73-3.67Z"/><path class="cls-2" d="M83.35,19.2v2.15h1.72v1.47H83.35v5c0,.77.34,1.14,1.1,1.14a4.84,4.84,0,0,0,.61-.05v1.46a4.54,4.54,0,0,1-1,.09c-1.84,0-2.55-.69-2.55-2.44V22.82H80.16V21.35h1.32V19.2Z"/><path class="cls-2" d="M92.76,25.87c0-1.95-.9-3.1-2.4-3.1S88,23.93,88,25.87,88.85,29,90.36,29s2.4-1.15,2.4-3.11Zm-6.7,0c0-2.85,1.68-4.64,4.3-4.64s4.29,1.79,4.29,4.64S93,30.51,90.36,30.51s-4.3-1.78-4.3-4.64Z"/><path class="cls-2" d="M96.19,21.35H98v1.54h0a2.16,2.16,0,0,1,2.18-1.64,3.17,3.17,0,0,1,.64.07v1.74A2.69,2.69,0,0,0,100,23,1.87,1.87,0,0,0,98,25V30.4H96.19v-9Z"/><path class="cls-2" d="M103.1,25h4.53a2.18,2.18,0,0,0-2.22-2.3A2.3,2.3,0,0,0,103.1,25Zm6.28,2.7c-.25,1.64-1.85,2.77-3.89,2.77-2.64,0-4.27-1.76-4.27-4.59s1.64-4.69,4.19-4.69,4.08,1.72,4.08,4.47v.64h-6.4v.11A2.36,2.36,0,0,0,105.53,29a2.05,2.05,0,0,0,2.09-1.27Z"/><path class="cls-2" d="M36.6,13.76h1.12a1.88,1.88,0,0,0,2-2.15,1.88,1.88,0,0,0-2-2.13H36.6v4.28Zm1.23-5.13a2.64,2.64,0,0,1,2.8,3c0,1.91-1,3-2.8,3H35.67v-6Z"/><path class="cls-2" d="M45,12.35c0-1-.43-1.55-1.2-1.55s-1.21.57-1.21,1.55S43,13.9,43.81,13.9s1.2-.57,1.2-1.55Zm-3.33,0a2.13,2.13,0,1,1,4.25,0,2.13,2.13,0,1,1-4.25,0Z"/><polygon class="cls-2" points="51.57 14.6 50.65 14.6 49.72 11.28 49.65 11.28 48.72 14.6 47.81 14.6 46.57 10.1 47.47 10.1 48.28 13.53 48.34 13.53 49.27 10.1 50.12 10.1 51.05 13.53 51.12 13.53 51.92 10.1 52.81 10.1 51.57 14.6 51.57 14.6"/><path class="cls-2" d="M53.85,10.1h.86v.71h.07a1.33,1.33,0,0,1,1.34-.8,1.47,1.47,0,0,1,1.56,1.68V14.6h-.89V11.91c0-.72-.32-1.08-1-1.08A1,1,0,0,0,54.74,12V14.6h-.89V10.1Z"/><polygon class="cls-2" points="59.09 8.34 59.98 8.34 59.98 14.6 59.09 14.6 59.09 8.34 59.09 8.34"/><path class="cls-2" d="M64.55,12.35c0-1-.44-1.55-1.21-1.55s-1.2.57-1.2,1.55.43,1.55,1.2,1.55,1.21-.57,1.21-1.55Zm-3.33,0a2.13,2.13,0,1,1,4.25,0,2.13,2.13,0,1,1-4.25,0Z"/><path class="cls-2" d="M69.3,12.94v-.37l-1.1.07c-.62,0-.91.25-.91.65s.36.64.84.64a1.07,1.07,0,0,0,1.17-1Zm-2.9.39c0-.81.6-1.28,1.68-1.35l1.22-.07v-.39c0-.47-.32-.74-.93-.74s-.84.18-.93.5h-.87c.1-.77.82-1.27,1.84-1.27s1.77.56,1.77,1.51V14.6h-.86V14h-.07a1.51,1.51,0,0,1-1.35.71,1.36,1.36,0,0,1-1.5-1.35Z"/><path class="cls-2" d="M72.27,12.35c0,1,.45,1.53,1.2,1.53s1.21-.59,1.21-1.53-.47-1.53-1.21-1.53-1.2.58-1.2,1.53Zm-.92,0c0-1.43.73-2.33,1.87-2.33a1.51,1.51,0,0,1,1.38.79h.06V8.34h.89V14.6H74.7v-.71h-.07a1.57,1.57,0,0,1-1.41.79c-1.15,0-1.87-.91-1.87-2.33Z"/><path class="cls-2" d="M82.56,12.35c0-1-.44-1.55-1.21-1.55s-1.2.57-1.2,1.55.43,1.55,1.2,1.55,1.21-.57,1.21-1.55Zm-3.33,0a2.13,2.13,0,1,1,4.25,0,2.13,2.13,0,1,1-4.25,0Z"/><path class="cls-2" d="M84.67,10.1h.85v.71h.07a1.36,1.36,0,0,1,1.35-.8c1,0,1.55.6,1.55,1.68V14.6H87.6V11.91c0-.72-.31-1.08-1-1.08A1,1,0,0,0,85.56,12V14.6h-.89V10.1Z"/><path class="cls-2" d="M93.52,9v1.14h1v.75h-1v2.31c0,.47.19.68.63.68l.34,0v.74a3.37,3.37,0,0,1-.48.05c-1,0-1.38-.35-1.38-1.22V10.87h-.72v-.75h.72V9Z"/><path class="cls-2" d="M95.7,8.34h.89v2.48h.07A1.38,1.38,0,0,1,98,10a1.48,1.48,0,0,1,1.55,1.68V14.6h-.89V11.91c0-.72-.34-1.08-1-1.08A1.06,1.06,0,0,0,96.59,12V14.6H95.7V8.34Z"/><path class="cls-2" d="M101.63,11.93h2.28a1.08,1.08,0,0,0-1.11-1.16,1.15,1.15,0,0,0-1.17,1.16Zm3.13,1.45a1.83,1.83,0,0,1-2,1.31,2,2,0,0,1-2.08-2.33A2.08,2.08,0,0,1,102.81,10c1.25,0,2,.86,2,2.27v.31h-3.18v.05a1.19,1.19,0,0,0,1.2,1.29,1.08,1.08,0,0,0,1.08-.55Z"/></svg>